<?xml version="1.0" ?><svg id="Layer_1" style="enable-background:new 0 0 512 512;" version="1.1" viewBox="0 0 512 512" xml:space="preserve" xmlns="http://www.w3.org/2000/svg" xmlns:xlink="http://www.w3.org/1999/xlink" fill="#ffffff"><style type="text/css">
	.st0{fill-rule:evenodd;clip-rule:evenodd;}
</style><g><path class="st0" d="M21.9,277.7c-3.2,0-5.8,2.6-5.8,5.8c0,3.2,2.6,5.8,5.8,5.8h468.2c3.2,0,5.8-2.6,5.8-5.8c0-3.2-2.6-5.8-5.8-5.8   H21.9z"/><path class="st0" d="M495.5,299.7H16.5c-5.8,0-10.5,4.7-10.5,10.5c0,5.8,4.7,10.5,10.5,10.5h479.1c5.8,0,10.5-4.7,10.5-10.5   C506,304.4,501.3,299.7,495.5,299.7z"/><path class="st0" d="M434.5,351.6c-15.1,10.2-29.2,22.2-46.4,28.8c-21.2,8.2-45.9,6.9-66.2-3.5c-21.9-11.2-38.8-34.8-63.4-40.3   c-29.8-6.6-62.3,11.1-87.8,24.1c-26.3,13.4-57.9,28.7-88.2,21.4c-24.8-6-41.6-27.3-50.9-49.9H6v31.9c0,41.8,20.9,75.6,46.7,75.6   h406.6c25.8,0,46.7-33.8,46.7-75.6c0,0,0-31.9,0-31.9c-0.3-1.8-30.6,1.4-33.5,2c-10.1,1.9-19.4,6-28.3,11.2   C440.9,347.3,437.6,349.4,434.5,351.6z"/><path class="st0" d="M256,72.3C119,72.3,7.8,158.8,6,266h500C504.2,158.8,393,72.3,256,72.3z M59.7,211.3l-2-2.2l7.6-6.7l2,2.2   L59.7,211.3z M161.3,158.7l-2-2.2l7.6-6.7l2,2.2L161.3,158.7z M195,241.8l-2-2.2l7.6-6.7l2,2.2L195,241.8z M204.5,190.4l-2-2.2   l7.6-6.7l2,2.2L204.5,190.4z M229.7,120.6l-2-2.2l7.6-6.7l2,2.2L229.7,120.6z M294,171.4l7.6-6.7l2,2.2l-7.6,6.7L294,171.4z    M300.8,237.3l-2-2.2l7.6-6.7l2,2.2L300.8,237.3z M327.9,131.8l-2-2.2l7.6-6.7l2,2.2L327.9,131.8z M368.6,178.1l-2-2.2l7.6-6.7   l2,2.2L368.6,178.1z M409.5,224.6l-2-2.2l7.6-6.7l2,2.2L409.5,224.6z"/></g></svg>