<?xml version="1.0" encoding="utf-8"?>
<!-- Generator: Adobe Illustrator 24.1.0, SVG Export Plug-In . SVG Version: 6.00 Build 0)  -->
<svg version="1.1" id="Layer_1" xmlns="http://www.w3.org/2000/svg" xmlns:xlink="http://www.w3.org/1999/xlink" x="0px" y="0px"
	 viewBox="0 0 32 32" style="enable-background:new 0 0 32 32;" xml:space="preserve">
<style type="text/css">
	.st0{fill:#5B7ABA;stroke:#5B7ABA;stroke-width:3;stroke-linecap:round;stroke-linejoin:round;}
	.st1{fill:#5B7ABA;stroke:#5B7ABA;stroke-width:3;stroke-miterlimit:10;}
</style>
<g id="logout">
	<line class="st0" x1="15.9" y1="16" x2="28.9" y2="16"/>
	<path class="st1" d="M23.9,25v3h-16V4h16v3h2V3c0-0.6-0.4-1-1-1h-18c-0.6,0-1,0.4-1,1v26c0,0.6,0.4,1,1,1h18c0.6,0,1-0.4,1-1v-4
		H23.9z"/>
	<line class="st0" x1="28.9" y1="16" x2="24.9" y2="20"/>
	<line class="st0" x1="28.9" y1="16" x2="24.9" y2="12"/>
	<line class="st0" x1="24.9" y1="8.1" x2="24.9" y2="6.1"/>
	<line class="st0" x1="24.9" y1="26" x2="24.9" y2="24"/>
</g>
</svg>
