<?xml version="1.0" encoding="utf-8"?>
<!-- Generator: Adobe Illustrator 24.1.0, SVG Export Plug-In . SVG Version: 6.00 Build 0)  -->
<svg version="1.1" id="Layer_1" xmlns="http://www.w3.org/2000/svg" xmlns:xlink="http://www.w3.org/1999/xlink" x="0px" y="0px"
	 viewBox="0 0 1125 2436" style="enable-background:new 0 0 1125 2436;" xml:space="preserve">
<g>
	<g>
		<path d="M-597.9,957.2c-36.9-2.5-63.2-32.1-60.8-68.6c2.2-33.2,33.2-60.7,66-58.4c36.9,2.5,63.1,32,60.8,68.7
			C-533.9,932-564.9,959.4-597.9,957.2z M-541.7,894.1c0.1-30-23.8-54.2-53.6-54.3c-29.5-0.1-53.6,24-53.7,53.7
			c-0.1,29.7,23.8,53.9,53.3,54C-566,947.6-541.8,923.7-541.7,894.1z"/>
		<path d="M-348.1,887.2c-1.7,8.3-3.5,16.6-5.3,25.5c-2.5,0-5,0.2-7.4-0.1c-0.9-0.1-2.4-1-2.5-1.7c-2.6-13.8-5-27.7-7.5-41.9
			c3.5,0,6.4,0,10,0c1.2,8.8,2.4,17.7,3.6,26.6c0.3,0,0.7,0.1,1,0.1c1.7-8.8,3.3-17.6,5-26.7c2.4,0,4.7,0,7.4,0
			c1.7,9.1,3.4,18.2,5.2,27.2c0.3,0,0.5,0,0.8,0c1.2-9,2.4-18,3.6-27.2c3.2,0,6.3,0,10.1,0c-2.6,14.4-5.1,28.7-7.7,43.3
			c-3.2,0-6.3,0-9.9,0c-1.8-8.3-3.6-16.7-5.3-25.1C-347.5,887.3-347.8,887.2-348.1,887.2z"/>
		<path d="M-305.6,894.5c2.3,11,11.9,13.1,22.9,5.8c6.7,4.8,6.6,6.7-0.4,10.4c-9.7,5.1-22.8,3-29.3-4.7c-6.5-7.7-6.6-21.8-0.1-30.2
			c5.7-7.5,16.8-10.1,25.7-6c7.4,3.4,12.7,14.1,10.7,22.3c-0.2,1-2.2,2.2-3.4,2.3c-6.8,0.2-13.6,0.1-20.5,0.1
			C-301.9,894.5-303.7,894.5-305.6,894.5z M-305.4,886.4c6.3,0,12.2,0,18.1,0c-0.3-6.1-3-9.2-8.1-9.6
			C-300.3,876.4-303.9,879.7-305.4,886.4z"/>
		<path d="M-154.8,894.5c2.4,10.9,12.1,13.1,23.4,5.4c1.4,1.8,2.9,3.7,4.4,5.7c-5.7,9.4-23,11-32.6,2.5c-7.5-6.6-8.5-15.1-6.2-24.3
			c2.1-8.5,7.6-13.8,16.3-15.6c14.4-2.9,26.9,9.4,23.7,23.8c-0.2,1-2.5,2.3-3.9,2.3C-137.9,894.6-146.2,894.5-154.8,894.5z
			 M-154.7,886.6c5,0,9.6,0,14.3,0c1.1,0,2.3-0.2,3.4-0.3c0.3-5.6-2.1-8.7-7.2-9.4C-149.4,876.2-153.2,879.6-154.7,886.6z"/>
		<path d="M-240.1,884.9c0.7-3.6-0.5-6.8-4.4-8c-3.6-1.1-7-1-10.3,2.5c-2.1,2.2-6.8,2.1-10.7,3.2c-0.6-6.3,2.2-9.5,6-11.7
			c7.8-4.4,16-4.3,23.8-0.1c4.8,2.6,6.8,7.1,6.8,12.5c0,9.6,0,19.2,0,29c-2.9-0.8-8.1,2.9-11.3-3c-5.4,3.8-11,5.1-17.2,3.3
			c-5.6-1.7-9.3-6-9.6-11.4c-0.4-6.3,2.4-11.5,8.4-13.2C-252.6,886.4-246.4,885.9-240.1,884.9z M-240.4,892c-4.1,0.6-8.3,0.6-11.8,2
			c-1.8,0.7-3.6,4.4-3.2,6.3c0.3,1.8,3.4,4,5.5,4.2C-242.2,905.4-239.2,901.6-240.4,892z"/>
		<path d="M-429.7,912.4c-2.9-0.9-8,2.8-11.3-2.9c-5.1,3.4-10.6,5.1-16.8,3.2c-6-1.8-9.7-6-10-11.6c-0.3-6.5,2.6-11.5,9-13.3
			c5.7-1.6,11.7-2,17.7-2.9c0.8-3.6-0.3-6.9-4.3-8.1c-3.7-1.1-7-0.9-10.3,2.5c-2.2,2.2-6.8,2.2-10.7,3.3c-0.5-5.8,1.8-8.8,5.1-11.1
			c6.6-4.8,18.3-5,25.1-0.5c4.5,3,6.6,7.2,6.5,12.7C-429.8,893.1-429.7,902.6-429.7,912.4z M-441.4,892.2c-3.8,0.5-7.4,0.6-10.9,1.4
			c-3.3,0.8-4.9,3.5-4.3,6.8c0.6,3.3,3.1,4.3,6.3,4.3C-442.8,904.8-440.2,901.6-441.4,892.2z"/>
		<path d="M-174.4,868.7c-5.8,15.2-11.2,29.4-16.6,43.6c-0.5,0.1-0.9,0.3-1.2,0.3c-9.4,0.4-9.4,0.4-12.6-8.2
			c-4.4-11.6-8.9-23.2-13.5-35.3c4.1,0,7.7,0,11.5,0c3.3,10.5,6.7,21.1,10.4,32.6c3-9.5,6.2-18,8.4-26.7c1.3-5,3.3-7.1,8.4-6.3
			C-178.2,868.9-176.7,868.7-174.4,868.7z"/>
		<path d="M-410.8,912.3c0-1.8,0-3.5,0-5.1c0-12.6,0-25.2,0-38.1c3.6,0,6.9,0,10.3,0c0.3,1.9,0.6,3.7,1,6.1c6.3-6.4,13.5-9.2,22.1-6
			c0.1,0.3,0.4,0.6,0.4,0.9c-1.1,9.1-1.1,9.1-10,9c-8.6-0.1-12.4,3.7-12.4,12.4c0,6.8,0,13.6,0,20.8
			C-403.2,912.3-406.6,912.3-410.8,912.3z"/>
		<path d="M-573.2,914.9c-4.2-1.2-9.4,2.7-12.9-3.4c-5.4,3.6-11.2,5.4-17.8,3.3c-6.1-1.9-9.8-6.1-10.2-12c-0.4-6.6,2.6-12.1,9-13.9
			c6-1.7,12.3-2,19-3c0.6-3.7-0.3-7.3-4.7-8.6c-3.8-1.1-7.2-1.1-10.6,2.8c-2.1,2.4-7.1,2.3-10.9,3.3c-1.1-5.5,1-8.4,3.9-10.8
			c7.4-6.2,21.3-6.4,28.9-0.4c4.3,3.4,5.3,8.3,5.5,13.3c0.1,5.5,0,11,0.1,16.5C-573.9,906-573.5,909.9-573.2,914.9z M-586.4,893.3
			c-4,0.4-7.8,0.5-11.4,1.4c-3.4,0.8-5.2,3.7-4.6,7.2c0.7,3.7,3.7,4.8,7.1,4.7C-588,906.5-585.2,902.6-586.4,893.3z"/>
	</g>
</g>
</svg>
