<?xml version="1.0" encoding="utf-8"?>
<!-- Generator: Adobe Illustrator 24.1.0, SVG Export Plug-In . SVG Version: 6.00 Build 0)  -->
<svg version="1.1" id="Layer_1" xmlns="http://www.w3.org/2000/svg" xmlns:xlink="http://www.w3.org/1999/xlink" x="0px" y="0px"
	 viewBox="0 0 3634 1029" style="enable-background:new 0 0 3634 1029;" xml:space="preserve">
<style type="text/css">
	.st0{fill:#5B7ABA;}
</style>
<g>
	<g>
		<path class="st0" d="M2554,607.8c2.6-2.7,5.3-5.4,7.9-8.1c-0.8,4.7-2.2,9.4-2.3,14.1c-0.3,20-0.2,40.1-0.2,60.1
			c0,2.3,0.5,4.6,0.8,6.9c1.1,0.4,2.2,0.8,3.3,1.3c3.4-5.9,9.3-11.7,9.7-17.9c1.3-21.9,0.7-43.9,0.7-65.9c0-2.4-0.6-4.7-1-7.5
			c-3.1,2.2-5.4,3.8-7.7,5.5c8.9-11,17.5-22.2,26.7-32.9c23.7-27.7,47.4-55.4,71.4-82.9c7.8-9,16.3-17.4,24.5-26
			c-8,36.4-1.8,73-3.7,111.4c17.3-12.7,18.1-14.3,18.2-31.4c0.1-27.8,0.3-55.6,0.1-83.4c0-3.4-1.9-6.8-2.9-10.2
			c3.5-4.7,7-9.3,10.5-14c-1.6,4.8-4.4,9.7-4.5,14.5c-1,30.4-1.5,60.8-1.9,91.2c-0.1,3.9,1,7.9,1.6,12.7
			c9.5-9.3,17.8-17.1,17.6-30.9c-0.6-31.7,0-63.4,0-95.1c0-1.1-0.7-2.3-1.2-3.8c-1.9,1.1-3.2,1.8-4.6,2.6
			c4.2-5.9,8.3-11.7,12.5-17.6c-1.4,5.6-4.1,11.1-4.1,16.7c-0.4,32.7-0.3,65.4-0.3,98c0,2.1,0.4,4.1,0.7,7
			c11.9-8.8,17.9-18.9,17.6-33.4c-0.7-29.4-0.2-58.9-0.1-88.3c0-4.1,0-8.3,0-13.4c-2.5,1.2-3.8,1.9-5.2,2.6c2.3-4.2,4.2-8.6,7-12.5
			c77.7-111.1,152.3-224.3,222.8-340.2c7.3-11.9,13.4-24.6,19.8-36.6c5.4,6.9,10.2,14.6,16.5,20.6c4.7,4.4,11.1,8.6,17.3,9.5
			c15.3,2.4,30.9,3.5,46.4,4c18.5,0.7,23.9-3.6,30.7-21.1c0.8-2,2.4-3.6,3.8-5.5c18.9,30.7,48.7,49.1,75.2,70.7
			c138.5,113,289.6,206.8,447.2,290.4c6.7,3.5,9,7.3,8.9,14.9c-0.2,211.4-0.2,422.8-0.2,634.2c0,3.2,0,6.4,0,10.6
			c-639.2,0-2993.6,0-3633.3,0c0-48.7,653.6-38.3,653.6-86.5c17.3-6.4,544.2-77.8,561.7-74.9c16.7,2.7,413.8,0.6,431.1,0
			c3.2-0.1,175.4,31.7,178.7,34.4c-0.3,0.9-0.7,1.7-1,2.6c3.7-0.6,7.5-0.9,11.1-2c24.7-7.6,49.2-15.4,73.9-23
			c8.8-2.7,13.8-9,14.7-17.5c1.8-17.7,3.1-35.5,3.6-53.2c1-34.3,0.7-68.6,1.9-102.9c1.3-36.5,3.7-73,5.5-109.6
			c0.4-8-0.1-16.1,0.5-24.2c0.3-3.8,2.2-7.5,3.7-12c10.8,11.1,17.3,16,31,5.2c7.1,11.1,19,9.8,27.9-4.1
			c7.3,14.6,14.3,28.7,21.2,42.8c-0.8,2.9-2.3,5.7-2.4,8.6c-0.4,7.2-0.1,14.4-0.1,21.7c-0.2,0-0.4,0-0.7,0
			c-0.7-13.1-1.4-26.2-2.2-41.9c-6.4,13.1-5.8,77.4,0.1,85.3c0-8.6,0-16.3,0-24c2.6,30.3,2.6,30.3,12.9,38.3c0-25.5,0-50.5,0-75.6
			c1.9,2.7,3.8,5.4,5.6,8.1c-1.3,1.5-3.6,3-3.6,4.5c-0.3,21.2-0.4,42.5-0.3,63.7c0,2.4,1.5,4.7,2.3,7.1c0.5-0.2,1-0.3,1.4-0.5
			c0-25,0-50.1,0-75.1c2.4,4.1,4.9,8.2,7.3,12.3c-1.2-0.9-2.4-1.8-3.5-2.6c0,24.4,0,48.4,0,72.3c1.1,0,2.2,0,3.3-0.1
			c0-23.3,0-46.6,0-69.9c1.7,2.2,3.4,4.4,5.1,6.5c-1.3,2.8-3.5,5.6-3.6,8.4c-0.4,15.2,0.8,30.5-0.7,45.6
			c-1.1,11.1,5.9,16.3,11.5,24.3c0-23.5,0-45.8,0-68c2.2,3.2,4.3,6.3,6.5,9.5c-6.6-4-4.2,2.5-4.2,4.2c-0.3,17.1-0.3,34.3-0.2,51.4
			c0,2.7,1.4,5.4,2.2,8.1c0.8-0.2,1.7-0.3,2.5-0.5c0-9.8,0-19.7,0-32.4c3.2,14.9-1.9,28,4.3,39.4c1-0.1,2-0.2,3-0.3
			c0-20.3,0-40.6,0-60.8c3.6,4.1,7.2,8.3,10.8,12.4c-5.2,19.3-4.1,53.8,3,60c0-10.8,0.4-20.7-0.1-30.5s-1.9-19.6-2.9-29.5
			c19.4,18.5,37.9,38,58.3,55.3c27.6,23.3,58.2,42.5,94.2,49.4c16.7,3.2,34.5,1.3,51.7,1.6c4.2,0.1,8.4-0.4,9.8-0.5
			c22.9-13.4,45.2-23,68.6-30.4c-0.6,6.2-1.1,12.4-1.7,18.6c0.9,0.7,1.8,1.3,2.7,2c2.7-2.1,7.6-4.2,7.6-6.3
			c0.1-5.7,5.3-13.5-4.4-16.8c2.1-1.1,4.3-2.3,7.2-3.9c0,8.2,0,15.4,0,24.1c3.6-0.8,8.8-1.2,8.8-2c0.6-8.9,0.4-17.9,0.4-28
			c1.5-0.9,4.2-2.4,6.9-3.9c-6,11-6,25.6,0.7,32c2.3-8.8,4.9-17.1,6.6-25.6c0.5-2.5,2.7-9.2-5.1-6.3c2-2,3.9-4.2,6.1-6
			c44.2-35.3,88.4-70.6,132.7-105.8c2.4-1.9,5.4-3.2,8.1-4.7c-2.7,3.9-7.6,7.7-7.7,11.7c-0.8,22-0.4,44.1-0.4,69.6
			c5.2-6.3,11.6-10.5,11.9-15.1c1.3-21,0.9-42,1-63c0-3.4-0.9-6.2-5-3c3-3.2,6-6.4,9-9.6c-1.3,25.1-2.5,50.3-3.9,76.9
			c13.9-6.6,16.2-8.8,16.3-16.6c0.3-20.6,0.5-41.3,0.4-61.9C2557.7,613,2555.3,610.3,2554,607.8z M2100.2,769.8
			c0,15.1,0,30.3,0,45.4l0,0C2100.2,800,2100.2,784.8,2100.2,769.8c-1.3-1.8-2.6-3.6-5.3-7.6c0,18,0,33.3,0,48.6c-0.5,0-1.1,0-1.6,0
			c0-15.7,0-31.4,0-47.2c-0.4,0-0.8,0-1.2,0c0,22.2,0,44.4,0,66.5c0.9,0.2,1.9,0.4,2.8,0.5c0.8-2.4,2.2-4.8,2.3-7.3
			c0.4-8.7,0-17.4,0.5-26.1C2098.2,788,2099.4,778.8,2100.2,769.8z M3236.4,636c-7.1,2.9-6.7,8.1-4.1,15.1c3-1.5,7.9-3,7.8-3.9
			C3239.7,643.3,3237.7,639.6,3236.4,636c0.6-8,1.8-16,1.8-23.9c0.3-128.8,0.5-257.5,0.4-386.3c0-4.3-3.2-8.6-5-12.9
			c-1.1,0.3-2.3,0.6-3.4,0.9c-0.3,5.4-0.9,10.8-0.9,16.1c0.3,108.4,0.7,216.8,1.1,325.1c0.1,23.3-0.1,46.6,0.5,69.9
			C3230.9,628.7,3234.5,632.2,3236.4,636z M2859,949.8c5.3-1.2,9.7-2.5,14.1-3.2c6.6-1,13.8-0.4,19.9-2.7
			c13.5-5.1,26.2-11.9,40.8-3.1c2.4,1.5,6.3,0.6,9.5,0.5c3.8-0.1,7.6-1.1,11.3-0.8c11.2,0.8,13.8-0.5,13.7-11.8
			c-0.4-56-1.2-112-1.9-168.1c0-0.8-0.9-1.6-1.3-2.4c-1.1-0.1-2.1-0.2-3-0.1c-101.2,9.8-202.5,18.4-303.4,29.7
			c-92,10.3-183.8,22.3-275.3,35.8c-100.8,14.9-201.3,31.9-301.7,48.9c-24.4,4.2-48.3,12-72.2,18.8c-3.8,1.1-8.9,5.8-9.2,9.1
			c-1.5,17.1-1.7,34.2-1.9,51.4c0,2.5,2.4,6.9,4.1,7.2c13.2,2,26.5,3.1,39.7,4.4c2.2,0.2,4.5-0.7,6.7-0.5
			c13.4,1.5,26.7,3.6,40.1,4.6c14.7,1.1,29.6,1.5,44.3,1.5c9.2,0,18.4-2.1,27.6-2c32.1,0.5,64.3,1.6,96.4,2.1
			c4.6,0.1,9.3-2.1,14-3.2c4.2,0.6,9,1.5,13.8,1.9c2.5,0.2,5.4-1.2,7.6-0.5c14,4.8,27.8,1.6,41.7-0.4c7.5-1.1,15-3.8,22.5-4
			c16.4-0.5,32.7-0.2,49.1,0.3c9.3,0.3,17.8-9.7,27.6-2.1c0.5,0.4,2.2-1.4,3.4-1.4c11.2-0.3,22.3-0.4,33.5-0.8
			c6.4-0.2,12.8-0.4,19-1.3c4-0.6,7.8-4,11.7-3.9c19.1,0.2,38.2,2,57.2,1.7c24.8-0.3,49.5-0.3,73.8,4.5c11.1,2.2,21.8,5.1,32.8-1
			c2.1-1.2,6,0.8,9.1,1.4c3.4,0.7,6.8,2.4,10.1,2.2c20-1.2,39.8-2.9,60.1-1.8c18.2,0.9,36.6-3.7,55-5.9c0.9-0.1,2.4-0.5,2.6-1.1
			c2.7-9.5,8.5-5.7,14.3-3.7c2.2,0.8,4.9-0.2,7.4-0.2C2835.7,949.8,2847.7,949.8,2859,949.8z M3162.6,672.2c0-3.4,0-5.3,0-7.3
			c-0.6-163.4-1.2-326.8-1.8-490.2c-0.1-15.4-5-22.2-20.6-28.3c-0.3,2.7-0.7,5.1-0.7,7.6c0.5,157.9,1,315.8,1.9,473.7
			c0.1,15.1,3,30.2,4.7,46.2C3153.1,673.2,3157.5,672.8,3162.6,672.2z M3174,171.9c-1.8,166.6-2.8,332,3.1,497.1
			c18,1.1,18,1.1,17.9-13.9c-0.4-151.1-1.1-302.1-0.8-453.2C3194.2,186.1,3188.1,178.1,3174,171.9z M3208.4,666
			c18.5,0.4,18.5,0.4,18.5-15.7c-0.1-73.2-0.4-146.3-0.4-219.5c0-69.3,0.1-138.6,0.2-207.8c0-15.1-3.4-20-18.3-25.2
			C3208.4,353.8,3208.4,509.7,3208.4,666z M3495.4,624.2c21.2-3.8,34.3-15.7,34.3-31c-0.3-62.7-1-125.4-1.9-188.1
			c-0.1-3.7-2.1-8.8-5-10.7c-8.8-5.8-18.3-10.3-27.4-15.3C3495.4,460.8,3495.4,542,3495.4,624.2z M3438,642.8
			c0.4-2.3,0.7-3.2,0.7-4.1c-0.6-95.1-1.2-190.2-2-285.3c0-3.2-1.4-7.5-3.8-9.3c-6.2-4.8-13.3-8.6-19.6-12.5
			c0,104.9,0,208.7,0,313.6C3423,644.2,3430.3,643.5,3438,642.8z M3453.2,355.8c0,93.3,0,186,0,280.5c5.7-1.7,9.3-2.8,14.9-4.5
			c-4.8-3.1-7.4-4.9-11.2-7.3c4-1.1,6.5-1.8,6.8-1.9c2.8-7.3,4.5-12.9,7.3-18c0.5-0.9,5.1,0.5,10.5,1.2c-5.8,2.4-8.7,3.6-11.9,4.9
			c0.3,6.5,0.7,12.5,1,18.4c12.3-0.3,12.7-0.6,13.2-10.9c0.2-4.8,0.1-9.7,0-14.6c-0.7-52.1-1.4-104.1-1.9-156.2
			c-0.2-19.1,0.5-38.2-0.1-57.2C3481.1,368,3476,362.4,3453.2,355.8z M3244.7,222.9c0,146.6,0,292.9,0,438.8
			c16.3,2.1,17,1.5,16.9-12c-0.3-46.2-0.7-92.5-0.9-138.7c-0.4-88.3-0.9-176.6-0.4-264.8C3260.3,232.6,3254.3,227.1,3244.7,222.9z
			 M3373.9,648.2c20.7,1.8,21.7,1,22.4-17.3c0.3-6.5,0.2-12.9,0.1-19.4c-0.7-85.4-1.4-170.8-2.1-256.2c-0.1-8.1,0-16.2-0.7-24.2
			c-1.1-13.1-6.7-18.8-19.8-21.7C3373.9,422.1,3373.9,535.2,3373.9,648.2z M3538.3,603.7c12.4-9.1,22.2-17,32.8-23.8
			c5.4-3.4,7.5-7,7.4-13.2c-0.3-22.3,0.2-44.7-0.1-67c-0.3-21.3-0.6-42.7-2-64c-0.4-5.9-3.3-13.5-7.7-16.9
			c-8.8-6.6-19.4-10.8-30.4-16.7C3538.3,469.8,3538.3,535.2,3538.3,603.7z M2956.5,683c-1-4.8-1.4-7-2.1-9.2c-0.4-1.1-2.1-2-2-2.9
			c1.1-15,3.4-29.9,3.5-44.9c0.5-125.5,0.5-251.1,0.7-376.6c0-2.3-0.5-4.6-0.9-7.9c-10.7,9.7-15.3,20.4-15.3,33.5
			c0.3,136.9,0.5,273.7,0.7,410.6c0,3,0.5,6,0.8,9c0.5,0,1.1,0.1,1.6,0.1c1.8-6,3.6-11.9,5.6-18.7
			C2951.3,678,2952.8,679.5,2956.5,683z M3354.6,651.5c0-7.3,0-12.9,0-18.6c-0.5-108.4-0.9-216.8-1.5-325.1
			c-0.1-13.4-3.6-18-16.7-22.7c0,121.7,0,243.6,0,365.6c1,0,2,0,3.1,0c0-7.9-0.3-15.7,0.1-23.6c0.4-7.8,4.9-9.5,13.6-4.1
			c-10.3,0.5-12.3,5.4-8.3,12.9C3347.4,640.5,3350.4,644.8,3354.6,651.5z M3280.8,248.2c0,137,0,273.3,0,409.4
			c15.6,1.6,16,1.3,16-8.2c-0.6-127.5-1.4-255.1-1.6-382.6C3295.2,255.6,3289.5,251.7,3280.8,248.2z M3300.3,261.8
			c0,131.9,0,263,0,393.8c14.9,1.8,15.7,1.1,15.6-10.9c-0.7-113.5-1.3-227.1-2.1-340.6c-0.1-9.7-1-19.4-1.4-29.1
			C3312.1,268,3308.8,263.5,3300.3,261.8z M2919.9,688.8c0.5,0.1,1.1,0.3,1.6,0.4c0,1.3-0.3,2.6,0.1,3.8c0.9,2.7,2.2,5.2,3.3,7.8
			c1.8-2.3,4.5-4.4,5.1-7c1.1-5,1.4-10.3,1.3-15.4c-0.6-71.5-1.8-143-1.9-214.5c-0.1-58.5,1.1-117.1,1.6-175.6c0-2.8-1-5.7-1.6-9.2
			c-13.4,10.8-13.4,24.6-13.4,38.2c0,106.1,0.2,212.3,0.3,318.4c0,20.4,0,40.8,0,61.2c0.9,0,1.8,0,2.7,0
			C2919.3,694.2,2919.6,691.5,2919.9,688.8z M3117.4,127.2c2.3,182.9,4.6,364.3,7,545.8c1.4-5.4,1.1-10.9,1.5-16.3
			c0.2-3,1.6-6,2.5-8.9c1.2-3.8,3.6-7.5,3.6-11.3c0-88.7,0-177.4-0.4-266.1c-0.3-75.1-1.1-150.2-1.3-225.3
			C3130.2,135.9,3125.8,131.1,3117.4,127.2z M3584.9,426.8c0,48.1,0,94.5,0,140.9c13.8-8.6,26.4-16.1,38.6-24.3
			c2.3-1.6,3.8-5.9,3.8-8.9c0.1-26.5,0-53-0.6-79.4c-0.1-3-2.3-7.3-4.8-8.7C3610,439.5,3597.7,433.4,3584.9,426.8z M3264.9,659.5
			c9.3,2.8,12.2-0.7,12.2-8.1c-0.1-5.8,0.2-11.6,0.2-17.5c-0.6-122.6-1.2-245.1-1.9-367.7c0-6.4-0.1-13.1-1.7-19.2
			c-1-3.9-4.7-7.2-7.2-10.8c-0.5,0.4-1,0.9-1.5,1.3C3264.9,378.2,3264.9,519,3264.9,659.5z M2804,689.3c1.1-0.1,2.2-0.3,3.3-0.4
			c0-83.9,0-167.8,0-251.6c-0.7,0-1.5-0.1-2.2-0.1c-0.9,4.7-1.9,9.4-2.9,14.5c-0.9-2.2-1.5-3.8-2-5.3c-11,5.5-12.2,15.2-12.2,25.1
			c-0.1,31.7,0,63.4,0.1,95.2c0.1,46,0.3,91.9,0.5,137.9c0,4,1,7.9,1.6,11.7c10.3,1.3,11-4.4,11-11.2c-0.1-63.1,0-126.2,0-189.4
			c1.6,19.3,1.5,38.5,1.6,57.8c0.1,19.7,0.1,39.5,0.6,59.2C2803.8,651.5,2801.9,670.5,2804,689.3z M3318.8,653.7
			c10.8,2.5,13.6-1.3,13.5-9.7c-0.4-58.9-0.4-117.8-0.7-176.7c-0.3-59.5-1-119-1.2-178.6c0-8.4-3.2-13.2-11.6-14.8
			C3318.8,400.6,3318.8,527,3318.8,653.7z M2893.8,705.2c2.1-1,4.8-1.3,5.2-2.5c1.7-4.4,3.6-9,3.6-13.6c0.5-122,0.8-243.9,1.1-365.9
			c0-2.3-0.8-4.6-1.2-6.9c-1.1-0.2-2.1-0.4-3.2-0.5c-1.7,5.2-4.6,10.3-5,15.6c-1.2,17.1-1.6,34.2-2,51.3c-0.3,9.7,0,19.4,0,29.1
			c0,10,0,20.1,0.1,30.1c0,9.7,0,19.4,0.1,29.1c0,9.7,0.1,19.4,0.1,29.1c0,9.7-0.1,19.4-0.1,29.1c0,10,0,20.1,0,30.1
			c0,9.7,0,19.4,0,29.1c0,9.7,0,19.4,0,29.1c0,9.7,0,19.4,0,29.1c0,10,1,20.2-0.3,30c-1,8.3,6.1,16.2,0.4,24.4
			C2892.2,701.8,2893.2,703.3,2893.8,705.2z M3369.5,651.7c1.1-4.3,1.3-4.6,1.3-4.9c-0.8-112-1.6-224-2.3-336
			c0-7.4-4.1-9.9-10.8-11.7c-0.3,3.2-0.7,5.7-0.6,8.2c0.7,98.4,1.3,196.8,2.3,295.2c0.1,13.9,1.9,27.8,3.4,41.6
			C3363.1,646.2,3366.3,648.2,3369.5,651.7z M2956.3,70.6c-10.6,13.7-23.3,26-23.4,44.3c-0.2,44.9,0.1,89.8,0.3,134.7
			c0,3.4,0.4,6.8,0.8,12c13.1-16.5,23.9-30.4,23.1-52c-1.7-43.2-0.4-86.5-0.3-129.8C2956.8,76.7,2956.5,73.6,2956.3,70.6z
			 M2768.6,718c10,2.1,12.5-1.2,12.5-8.8c0-76.3,0.2-152.7,0.2-229c0-3.2-0.6-6.4-1.1-10.7c-10.5,7.8-14.4,16.3-14.3,27.7
			c0.3,63.7,0,127.5,0.2,191.2C2766.2,698,2767.8,708,2768.6,718z M2930.2,110.8c-9.6,8.9-20.1,26.5-20.8,36.8
			c-1.6,26.1-2.9,52.2-3.5,78.4c-0.6,23.1-0.1,46.2-0.1,69.3c1.3,0.3,2.6,0.6,3.9,0.8c5.6-7.6,11.6-15,16.7-23
			c2.3-3.6,3.7-8.4,3.8-12.7c0.6-45.9,0.8-91.8,1-137.7C2931.2,119.1,2930.6,115.5,2930.2,110.8z M2834.5,710.5
			c10.9,0.9,9-6.8,9-11.7c0.3-100.9,0.3-201.7,0.3-302.6c0-1-0.4-2.1-0.7-3.1c-0.8-0.1-1.7-0.3-2.5-0.4c-1.6,4.6-3.9,9.1-4.5,13.9
			c-1.2,9.9-2,20-2,30c-0.1,88.6-0.1,177.2,0,265.8C2834,704.8,2834.3,707.2,2834.5,710.5z M2877.6,350.2c-0.9-0.2-1.7-0.4-2.6-0.6
			c-1.5,3.3-3.9,6.4-4.3,9.8c-1.1,8.6-1.9,17.4-1.9,26.1c-0.1,101.2,0,202.4,0,303.7c0,4.2,0,8.3,0,12.5c0.6,0,1.1,0,1.7-0.1
			c0.3-4.2,0.7-8.3,1-12.5c0.3,0,0.6,0,0.9,0.1c0.3,5.7,0.7,11.3,1.1,17.8c9.5-2.5,6.2-9.6,6.4-14.3c0.2-3.7-2.4-7.5-3.9-11.7
			c0.8-2.3,3.1-6.3,3.2-10.3c0.4-10.3-0.3-20.7-0.3-31c-0.1-91.8-0.2-183.7-0.3-275.5C2878.6,359.6,2878,355,2877.6,350.2z
			 M2811.1,713.7c7.2,0.7,10.3-1.7,10.1-8c-0.1-3.5,0.5-7.1,0.6-10.7c0.2-89,0.4-177.9,0.5-266.9c0-2.6-0.5-5.3-0.8-7.9
			c-1.1-0.2-2.1-0.5-3.2-0.7c-1.9,5.1-4.8,10.1-5.5,15.4c-1.4,10.2-2,20.6-2,31c-0.2,79.6-0.2,159.2-0.2,238.7
			C2810.7,707.5,2811,710.3,2811.1,713.7z M2905.4,152.6c-1-0.2-2.1-0.3-3.1-0.5c-8,14.5-20.6,26.2-20.3,45.3
			c0.7,40.1,0.1,80.2,0.1,120.3c0,4,0.5,8,0.8,12.9c14.6-13.2,21.2-26.3,21.4-42.6c0.5-38.1,0.8-76.3,1.1-114.4
			C2905.4,166.5,2905.4,159.5,2905.4,152.6z M2761.6,492.2c-13.7,11.3-15.7,14.4-15.8,25.3c-0.5,65.4-0.8,130.8-1,196.1
			c0,2.8,1.2,7.5,2.9,8.1c3,1,8.3,0.7,10-1.3c2.3-2.7,2.9-7.5,2.9-11.3c0.5-63.8,0.7-127.5,1-191.3
			C2761.6,510.2,2761.6,502.5,2761.6,492.2z M2867.4,364.2c-1.3-0.5-2.5-0.9-3.8-1.4c-2,5.2-5.8,10.5-5.9,15.7
			c-0.5,73.7-0.8,147.5-0.6,221.2c0.1,32.3,1.3,64.7,2.1,97c0.1,4,1.5,8,2.3,11.9c1.8-0.2,3.7-0.4,5.5-0.5
			C2867.1,593.7,2867.2,479,2867.4,364.2z M2857.6,362.5c0.8,0.2,1.6,0.3,2.4,0.5c3.2-4.4,5.9-9.2,9.7-13c6.8-6.9,9.6-14.6,9.6-24.3
			c0-39.1,0.6-78.2,0.8-117.3c0-5.5-0.7-10.9-1.2-17.6c-15.7,17.1-22.8,34.6-21.7,56.7c1.7,35.2,0.4,70.4,0.4,105.7
			C2857.6,356.4,2857.6,359.4,2857.6,362.5z M2740.3,516c-12.9,9.5-15.3,13.5-15.4,26.8c-0.7,55.9-1.3,111.8-2,167.7
			c-0.2,16.4,0.6,17,16.2,12.5c0.5-0.2,0.9-0.8,1.2-1C2740.3,653.5,2740.3,585,2740.3,516z M2890,335.6c-1.2-0.2-2.5-0.5-3.7-0.7
			c-1.2,2.4-3.5,4.8-3.6,7.3c-0.2,120.8-0.2,241.6-0.2,362.6c9.8,0.3,7.4-6.1,7.4-10.2c0.1-102.9,0.1-205.8,0.1-308.7
			C2890,369.1,2890,352.4,2890,335.6z M2721.1,537c-11.5,8-16.5,16.8-16,29.6c0.7,18.4-0.8,36.8-0.7,55.2c0.3,32.7,2.7,65.5,1,98.1
			c-0.6,10.9,4.7,6.3,8.1,7.1c2.2,0.5,4.9-0.9,7.6-1.5C2721.1,663,2721.1,600.8,2721.1,537z M3027.5,676.2c2.2-3.3,4.4-6.6,6.6-10
			c1.7-2.5,3.4-5,4.9-7.6c1.2-2,3-4.2,3-6.2c0.1-31.3,0.1-62.7-0.3-94c0-2.2-3-5.6-5.2-6.2c-13.3-3.6-19.1-0.2-19.2,13.3
			c-0.2,39.4,0.5,78.8,1.3,118.2c0,1.6,4.3,4.2,6.7,4.4c2,0.2,5.9-2.8,5.8-4.2C3031,681,3028.7,678.5,3027.5,676.2z M3399.6,324.8
			c0,107.4,0,214.2,0,320.9c8.8,1.9,9.9-1.9,9.8-7.7c-0.3-21-0.5-42-0.6-63c-0.4-79.2-0.9-158.5-1.2-237.7
			C3407.6,331,3407.4,325.5,3399.6,324.8z M3201.2,189.7c-1.4,0.1-2.8,0.3-4.2,0.4c0.8,159.2-1,318.5,1.4,477.8
			c1.7,0.2,3.4,0.4,5.1,0.6c0.6-3.7,1.6-7.5,1.6-11.2c-0.5-100.7-1.2-201.3-1.6-302c-0.2-49.8,0.1-99.7-0.1-149.5
			C3203.4,200.4,3202,195,3201.2,189.7z M2834.8,395.6c6.5-8.7,11.7-14.7,15.8-21.4c2.4-3.8,4.5-8.7,4.5-13.1
			c0.4-41.7,0.4-83.5,0.4-125.2c0-2.7-0.4-5.4-0.5-8.2c-8.8,11.8-20.8,21.2-20.8,37.2c0,39.1-0.3,78.3-0.3,117.4
			C2833.9,386,2834.3,389.2,2834.8,395.6z M3066.1,679.8c0.8,0,1.6,0,2.4,0.1c0.3-3.4,0.9-6.8,0.9-10.2c0.2-35.2,0.3-70.4,0.3-105.7
			c0-8.2-5-12.5-14.1-12.9c-8.5-0.4-7.8,6.2-8.6,11.4c-0.8,5.1-0.9,10.3-0.8,15.5c0.3,20,0.5,40.1,1.3,60.1
			c0.5,14.5-3.7,30,7.9,42.4c1.5,1.6,3.3,2.9,5,4.4c1.3-1.9,3.2-3.7,3.6-5.8c0.6-3.1,0.2-6.4,0.2-9.6c0.7,0,1.3,0.1,2,0.1
			C3066.1,673,3066.1,676.5,3066.1,679.8z M2831.7,263c-14.5,12.6-20.9,26.6-20.9,43.6c0,35,0.1,69.9,0.2,104.9c0,3,0.7,5.9,1.1,9.8
			c13.9-11,20.4-23.6,20.2-40.2c-0.6-35.6-0.4-71.2-0.5-106.8C2831.7,271.1,2831.7,268,2831.7,263z M3582.3,353.1
			c0,21.5-0.2,39.9,0.2,58.2c0.1,3.1,2.1,7.6,4.5,9c12.5,7.1,25.4,13.4,39.7,20.9c0-20.5,0.3-38.8-0.3-57c-0.1-3.5-3.3-8.3-6.4-10.2
			C3608.6,367,3596.6,361,3582.3,353.1z M3538.8,329.1c-0.8,2-1.4,2.9-1.4,3.8c0,19.4,0,38.7,0.1,58.1c0,1.4,0.8,3.5,1.9,4.1
			c12.8,7.1,25.7,13.9,38.6,20.8c1-0.6,2-1.2,2.9-1.8c-0.9-19.2-1.3-38.4-3-57.6c-0.4-4-4.8-8.6-8.5-11
			C3559.8,339.8,3549.6,335,3538.8,329.1z M3040.9,490.5c0.4-4.1,0.9-7.6,0.9-11c0-33.6-0.2-67.2,0-100.9c0.1-14-10.4-8-16.7-9.3
			c-8.2-1.7-7.5,4.5-7.5,9.8c0.1,29.7-0.1,59.5,0.4,89.2C3018.4,492.5,3014.4,487.5,3040.9,490.5z M2575.7,744.5
			c1.6,0.2,3.3,0.4,4.9,0.6c0.6-9.4,1.3-18.8,1.7-25.6c0.3,6.7,0.7,15.9,1.2,25.2c1.3,0.2,2.5,0.4,3.8,0.6c1.8-2.9,3.6-5.9,4.9-8
			c0.3,0.9,1.1,2.9,1.9,5c0.8,0,1.6,0,2.4-0.1c1.1-5.7,2.2-11.3,3.2-16.6c0.4,4.1,0.9,8.8,1.5,13.5c2.3-0.3,4.6-0.5,6.7-0.8
			c0.5-3.1,1-5.6,1.5-8.7c0.8,3.7,1.4,6.8,2,9.9c0.7-0.1,1.4-0.1,2.1-0.2c0-31,0-62,0-93c-0.5,0-1.1-0.1-1.6-0.1
			c-0.8,18.4-1.7,36.8-2.5,55.3c-0.4,0-0.8,0-1.2,0c0-17.5,0-35.1,0-52.6c-1-0.1-2-0.1-2.9-0.2c-10.5,11.7-2.5,26.7-5.2,37
			c-0.4-7.7-1-18.3-1.6-28.9c-1.5,0-3,0.1-4.5,0.1c0,12.9,0,25.9,0,38.8c-1,0-2,0-3,0c0-10.8,0-21.6,0-32.5
			c-0.8-0.3-1.6-0.5-2.4-0.8c-1.8,3-4.6,8.8-5.2,8.6c-6.1-2.1-7.4,2.1-7.4,5.8C2575.5,699.5,2575.7,722,2575.7,744.5z M3068.8,490.8
			c0.2-2.1,0.5-3.7,0.5-5.2c0-32.3,0.2-64.6,0-96.8c-0.1-17.2-3.9-20-22.4-16.9c0,3.3,0,6.8,0,10.3c0,30-0.3,60.1,0.2,90.1
			C3047.3,493.5,3041.9,491.5,3068.8,490.8z M3494.9,303.6c-0.8,2.9-1.5,4-1.5,5.2c-0.1,18.7-0.2,37.5-0.1,56.2
			c0,1.8,0.5,4.5,1.7,5.2c12,7.1,24.1,13.8,38.2,21.7c0-22.2,0.1-41.2-0.1-60.2c0-2.3-1.4-5.5-3.2-6.7
			C3518.6,318,3507.1,311.1,3494.9,303.6z M2912.6,301.6c-5.9,8.9-8.3,391.6-1.9,404.1c0.9-2.7,1.9-4.2,1.9-5.7
			C2912.6,567.8,2912.6,435.6,2912.6,301.6z M2701.6,556.5c-9,8.2-15.4,14.9-15.3,26.6c0.5,42,0.1,84.1,0.1,126.1
			c0,6.7,0.6,13.4,1,21.2c5.3-0.8,9.6-1.5,14.2-2.2C2701.6,671,2701.6,614.7,2701.6,556.5z M3452.2,278c0,23.4-0.1,44.5,0.1,65.7
			c0,1.7,1.3,4,2.7,4.8c10.9,6.1,21.9,11.9,34.2,18.5c0-21.6,0.1-41.2-0.1-60.8c0-2.3-1.3-5.6-3-6.8
			C3475.4,292.4,3464.5,285.8,3452.2,278z M3448,343.9c0-21.7,0.2-41-0.2-60.3c-0.1-3.2-1.5-7.7-3.9-9.4
			c-10.1-7.2-20.7-13.6-32.5-21.1c0,22.4-0.3,42.6,0.3,62.8c0.1,3.5,2.6,8.3,5.5,10.3C3426.5,332.1,3436.4,337.2,3448,343.9z
			 M2853.8,377.6c-7.1,11.4-10.5,312.9-3.2,332c2.2-2.9,4.1-6.3,4.1-9.7c0.1-101.9,0.1-203.8,0-305.7
			C2854.7,389.2,2854.2,384.1,2853.8,377.6z M2809.7,296.8c-0.9-0.2-1.9-0.4-2.8-0.6c-10.2,13.1-19.3,25.8-18.4,44.6
			c1.6,31.3,0.3,62.7,0.3,94c0,4.3,0.5,8.7,0.7,13c1.1,0.4,2.2,0.7,3.3,1.1c4.5-8.4,12.6-16.7,13.1-25.3
			C2808.3,381.4,2808.6,339,2809.7,296.8z M2785.1,328.5c-13.1,12.6-19.2,26.2-18.1,43.9c1.2,19.2-0.7,38.6-0.9,57.9
			c-0.2,14.7,0,29.5,0,44.2c1.3,0.3,2.6,0.7,4,1c5-8,14.1-15.8,14.4-23.9C2785.9,411,2785.1,370.4,2785.1,328.5z M3407.2,319.8
			c0-22.8,0.1-43.4-0.1-64c0-2-1.1-4.7-2.6-5.9c-9.9-7.4-20.1-14.4-32.1-22.9c0,24.4-0.1,45.7,0.2,66.9c0,2.4,1.7,5.8,3.7,7.1
			C3385.8,307.2,3395.7,313,3407.2,319.8z M3334.2,202.2c0,24.3-0.1,46.2,0.1,68c0,2,1.4,4.7,3,5.8c9.7,6.6,19.7,12.9,31,20.1
			c0-22.4,0.3-42.7-0.3-63c-0.1-4.3-2.7-9.7-6-12.4C3354.3,214.6,3345.5,209.6,3334.2,202.2z M2973.2,43.3c-1.5-0.4-3-0.7-4.4-1.1
			c-2.9,8.9-8,17.7-8.2,26.7c-1.2,49.7-1.3,99.5-1.6,149.2c0,1.6,1,3.2,2.4,7.6c3.2-5.6,6.1-8.8,6.9-12.5c1.8-8.2,3.4-16.5,3.6-24.8
			c0.9-44.9,1.4-89.8,2-134.8C2973.8,50.2,2973.4,46.8,2973.2,43.3z M3331,272.4c0-19.4-0.1-36.7,0-54.1c0.2-17.9-13.9-35.2-32.6-39
			c0,22.4-0.2,44.6,0.2,66.9c0.1,2.9,2.5,6.8,5,8.6C3311.8,260.5,3320.4,265.5,3331,272.4z M3193,176.6c1-17.1,1.5-32.2,2.8-47.2
			c2.2-24.1-6.5-41.9-29.3-51.9c-0.2,0.2-1,0.6-1,1.1c-0.2,24.9-0.3,49.7-0.2,74.6c0,1.6,1.5,3.7,2.9,4.8
			C3175.8,163.9,3183.6,169.6,3193,176.6z M3260.2,224.9c0-25.2,0.1-48-0.1-70.8c0-2.3-1.2-5.4-3-6.9c-8.3-6.9-16.9-13.4-26.9-21.2
			c0,26.7-0.1,51.2,0.2,75.6c0,1.8,1.9,4,3.6,5.2C3241.7,212.4,3249.7,217.8,3260.2,224.9z M3041.8,265.9
			C3041.8,265.9,3041.9,265.9,3041.8,265.9c0-13.6,0.2-27.2-0.1-40.7c0-2.5-1.1-6.3-2.9-7.1c-13.1-6.3-21.7-0.9-21.7,13.8
			c0,22,0.6,44,0.7,65.9c0.1,15.5,0,15.2,15.2,16.5c7,0.6,9.1-2,8.9-8.7C3041.6,292.4,3041.8,279,3041.8,265.9z M3294.9,248.5
			c0-23.5,0.3-44.1-0.2-64.8c-0.1-4.5-1.9-10.2-5-13c-7.4-6.8-16.1-12.2-26.4-19.7c0,26.2,0,49.7,0.1,73.1c0,1.5,0.7,3.5,1.7,4.3
			C3274.2,234.7,3283.5,240.8,3294.9,248.5z M3199.7,102.4c-1,0.4-2.1,0.8-3.1,1.3c0,23.8,0,47.6,0.1,71.4c0,1.8,0.5,4.3,1.8,5.3
			c8.6,6.8,17.5,13.3,28,21.2c0-26.5,0-50.2-0.1-74c0-1.7-1-4-2.3-5.1C3216.1,115.6,3207.8,109,3199.7,102.4z M3047,314
			c5.7,0.7,10.1,1.3,14.6,1.8c5.1,0.6,8-1.1,7.9-6.8c-0.2-27.5-0.1-54.9-0.4-82.4c0-2.5-2.4-6.8-4.2-7.1c-5.7-0.9-11.7-0.3-17.8-0.3
			C3047,251.3,3047,282.4,3047,314z M3134.7,50.7c0,27.4,0,52.3,0.1,77.1c0,1.5,0.4,3.6,1.4,4.5c7.7,6.5,15.6,12.7,24.7,20.2
			c0.7-5.4,1.5-8.5,1.5-11.7c0.2-16.2-0.7-32.4,0.7-48.5C3164.8,71.4,3151.5,61.9,3134.7,50.7z M2763.6,357.6
			c-8.7,11-17.7,18.9-17.7,32.3c-0.1,31.3-0.9,62.6-1.2,94c0,4.9,0.8,9.8,1.3,14.6c1.1,0.3,2.2,0.6,3.3,0.9
			c4.8-8,13.4-15.9,13.7-24.1C2764.4,437.1,2763.6,398.6,2763.6,357.6z M2935.1,699.5c3.9-7.4,4.8-420,0.9-430.9
			C2931.4,276.4,2930.5,689,2935.1,699.5z M2682.5,577c-9.4,6.9-13.9,13.5-13.9,23.6c0,40.1-0.6,80.3-0.9,120.4
			c0,3.7,0.7,7.4,1.1,11.2c0.9,0.4,1.9,0.9,2.8,1.3c2.3-2.8,4.7-5.6,6.3-7.5c0.2,0.4,1.1,2.3,1.9,4.2
			C2682.4,679.5,2682.3,629.3,2682.5,577z M2649.3,614.8c-0.6,0-1.2,0-1.8,0c-0.9,36.8-1.9,73.6-2.4,110.5c0,3.5,3.2,7,5,10.5
			c4.9-3,13.5,0.4,13.2-11c-0.7-38.5-0.1-77,0-115.5c0-3.6-0.5-7.3-0.8-12c-8.9,5.3-11.7,11.6-11.6,20.1
			c0.3,36.2,0.1,72.4,0.1,108.5c-0.6,0-1.1,0-1.7,0C2649.3,688.8,2649.3,651.8,2649.3,614.8z M3446.1,633.3c0.4-3.1,1.2-6.1,1.2-9.2
			c0.3-88.3,0.5-176.7,0.6-265c0-3.1-2-6.2-3.1-9.3c-1.3,0.3-2.7,0.5-4,0.8C3439.3,444.8,3441.4,539,3446.1,633.3z M2024.7,847.8
			c1.4,0,2.8,0.1,4.2,0.1c3.8-38.2,2.1-76.6,4.3-114.9c0,35.3,0,70.7,0,106c3.2-40.1,4.6-80.2,5.7-120.2c0.1-2.9-1.8-5.8-2.7-8.7
			c-4.4,3.7-3.4-0.6-4.7-2.7c-2.4-4.2-5.5-7.9-8.3-11.9c-0.8,0.3-1.6,0.5-2.4,0.8c0,48.3,0,96.6,0,144.9c0.1,0,0.2,0,0.3,0
			c1.7-41.9,3.4-83.8,5.1-125.7c0.4,0,0.9,0,1.3,0C2026.6,759.8,2025.6,803.8,2024.7,847.8z M3066.2,83.4
			c-9.7,10.9-19.5,20.7-18.8,36.3c0.5,12.2-0.4,24.5-0.6,36.8c-0.1,12.7,0.9,13.7,13.5,13.5c2.8,0,5.7-0.6,9.3-1.1
			C3069.1,140.1,3073.7,111.7,3066.2,83.4z M2495.1,725.5c6.6,1.1,12.2-2.6,12.4-8.2c0.9-20.7,0.4-41.4,0.4-62.8
			c-7.7,4.2-12.5,9.3-12.1,18.3c0.4,9.8,0.1,19.6,0.1,29.4c-0.8,0-1.5,0-2.3,0c0-11.4,0-22.8,0-34.2c-1-0.4-2-0.9-2.9-1.3
			c-3.3,4.7-9.2,9.2-9.5,14.1c-1.1,18.3-0.5,36.7-0.5,58.2C2487.2,732.8,2491.5,728.8,2495.1,725.5z M2629.1,619.7
			c12.6-6.3,15.9-10.5,16.1-22.5c0.5-22.9,0.6-45.8,0.7-68.8c0-5.2-0.6-10.5-1.1-17c-11.8,9.1-17,19.2-17,31.9
			c0,22.6,0,45.2,0.2,67.8C2628,613.8,2628.7,616.5,2629.1,619.7z M2682.7,464c-9.3,10.8-17.2,18.5-16.9,31.4
			c0.5,25.9,0.1,51.7,0.2,77.6c0,3.5,0.6,7.1,1,11.1c12.4-7.6,16.8-16.9,15.8-30.1c-1.1-14.8-0.2-29.7-0.1-44.6
			C2682.7,495.2,2682.7,481,2682.7,464z M2647.6,603.2c11.3-7,16.5-14.7,16-27.5c-0.9-25.1,0-50.4,0.2-75.6c0-3.3-0.3-6.6-0.6-10.9
			c-9.7,6.3-15.3,14-15.4,23.8C2647.2,542.5,2647.6,572.2,2647.6,603.2z M2464.9,742.7c0.1,0.1,1.5,2.3,1.9,2.1
			c5.6-2.3,11.7-3.9,11.7-12c0-13.2,0.5-26.4,0.6-39.6c0-4.2-0.5-8.5-0.8-13.3c-10.3,4.3-12.9,15.7-23.2,18
			c-1.6,0.3-3.3,4.2-3.4,6.5c-0.3,15.6-0.2,31.2-0.2,46.8c0.9,0.5,1.7,1,2.6,1.4C2457.7,749.3,2461.2,746,2464.9,742.7z
			 M2626.6,532.5c-11.7,9.3-16.8,18.6-16.3,31.6c0.8,20.3,0.3,40.7,0.3,61.1c0,3.3,0,6.7,0,10.7c13.5-6.7,15.4-9.4,15.5-21.1
			c0.2-13.9,0.4-27.8,0.4-41.7C2626.6,560.5,2626.6,547.5,2626.6,532.5z M2825.7,700.8c1.4,0,2.8,0.1,4.3,0.1
			c0-95.1,0-190.2,0-285.3C2826,510.5,2822.7,605.7,2825.7,700.8z M2608.1,552.8c-8.6,8-15.3,14.4-15,25.7
			c0.4,19.7-0.2,39.5-0.3,59.2c0,4.4,0,8.7,0,14.8c8.6-4.3,15.1-8,15.2-16C2608.3,609.2,2608.1,581.8,2608.1,552.8z M2962.1,242.1
			c-0.9,0-1.7,0-2.6,0c-3.1,137.8,0.8,275.5,2.6,413.3C2962.1,517.7,2962.1,379.9,2962.1,242.1z M2575.1,667.5
			c10.8-6,17-11.4,16.2-22.9c-1-14.2-0.3-28.5-0.4-42.7c0-9.2,0-18.4,0-28.8c-11.9,6.3-15.5,15.9-15.7,26.4
			C2574.7,621.5,2575.1,643.5,2575.1,667.5z M2040.3,716.2c0,44.2,0,86.1,0,128.1c0.4,0.1,0.8,0.3,1.2,0.4c0.9-2.9,1.8-5.9,2.9-9.3
			c1.4,2.7,2.4,4.7,4.8,9.1c0.6-5.6,1-8.4,1.1-11.1c0.7-30.1,0.9-60.2,2.3-90.3C2053.1,732.7,2051.1,724.3,2040.3,716.2z
			 M3116.5,35.9c0,25.2,0.4,48.1-0.2,70.9c-0.3,11.1,4.8,17.1,15.8,21.7c0-25.2,0-49.2,0-73.2C3132.2,46.4,3126.8,41.3,3116.5,35.9z
			 M2644,617.2c-1.5-0.4-2.9-0.8-4.4-1.2c-1.9,5.3-5.3,10.6-5.4,16c-0.6,33-0.5,66-0.6,98.9c0,2.1,0.6,4.3,0.9,6.2
			c7.5,1.2,9.8-2.1,9.7-8.6c-0.2-17.5-0.2-34.9-0.2-52.4C2644,656.5,2644,636.8,2644,617.2z M3019,141.3
			c8.7-13.8,17.3-24.8,22.9-37.1c3.2-7,2.3-16.3,1.3-24.3c-0.2-1.5-9.7-1.8-14.9-2.6c-2.8-0.4-5.6-0.6-9.3-1.1
			C3019,97.2,3019,117.7,3019,141.3z M3003.5,158.8c1.3,0.4,2.6,0.8,3.9,1.2c2.5-6.5,6.5-12.8,7.3-19.5c1.3-11.8,0.7-23.8,0.8-35.8
			c0.1-9.3,0-18.6,0-28c-8.5-0.8-12.9,1.9-13.1,9.9c-0.3,22-0.8,43.9-1,65.9C3001.5,154.6,3002.8,156.7,3003.5,158.8z M3487.6,379.4
			c0,81.8,0,163.7,0,246.8C3493,620.5,3492.7,414,3487.6,379.4z M2625.1,633.8c-1-0.4-1.9-0.9-2.9-1.3c-1.9,5.3-5.3,10.5-5.4,15.8
			c-0.6,27.4-0.3,54.9-0.3,82.4c0,1.6,0.6,3.1,1.3,6.4c1.7-3.6,2.6-5.5,3.5-7.4c0.5,3.3,1,6.4,1.4,9.6c0.8-0.1,1.6-0.2,2.4-0.3
			C2625.1,703.8,2625.1,668.8,2625.1,633.8z M3010.9,310.1c0.9-0.6,1.8-1.3,2.7-1.9c0-30,0-59.9,0-89.9c-0.9-0.2-1.8-0.4-2.7-0.6
			c-1.5,2.9-4.2,5.7-4.3,8.7c-1.1,24.4-2.1,48.9-2.3,73.3C3004.3,303.1,3008.6,306.6,3010.9,310.1z M2511.3,716.5
			c10.6-3.6,14.4-9.9,13.8-19.6c-0.6-9.6-0.2-19.3-0.2-29c0-8.8,0-17.7,0-26.5c-1.2-0.4-2.4-0.9-3.6-1.3c-3.3,5-9.2,9.9-9.5,15
			C2510.7,675.2,2511.3,695.5,2511.3,716.5z M2069.1,836c0.8,0,1.5-0.1,2.3-0.1c0-24.7,0-49.4,0-74.2c1.3,0,2.5,0,3.8,0
			c0,24.2,0,48.4,0,72.5c0.9,0,1.8,0,2.6,0c0.3-4.5,0.5-8.9,0.9-15.1c0.6,3.9,0.9,6,1,6.5c0-19.8,0-41.1,0-62.3
			c0-7.7-0.8-14.9-10.6-18.8C2069.1,775.3,2069.1,805.7,2069.1,836z M3014.1,375.8c-0.8-0.1-1.5-0.3-2.3-0.4
			c-1.8,8.2-4.9,16.4-5,24.7c-0.4,26.8,0.2,53.6,0.8,80.4c0,2.1,2.9,4.2,4.4,6.3c0.7-0.4,1.5-0.7,2.2-1.1
			C3014.1,449,3014.1,412.4,3014.1,375.8z M3133.7,742c0.1,1.3,0.2,2.6,0.3,3.9c41.1-1,82.1-2,123.2-3c0-1.5-0.1-3-0.1-4.5
			C3215.9,733.8,3174.8,738.7,3133.7,742z M3041.5,121.2c-0.8-0.3-1.5-0.7-2.3-1c-5.2,8-11.2,15.7-15.5,24.2c-3,5.9-3.7,13-5.4,19.6
			c6.7,1.5,13.4,3,20.1,4.3c0.7,0.1,1.7-0.7,3-1.4C3041.5,151.7,3041.5,136.4,3041.5,121.2z M3081.3,94.6c-1.1,0.4-2.1,0.8-3.2,1.1
			c-0.3,1.8-0.9,3.6-0.9,5.4c-0.1,20.4-0.3,40.7,0.1,61.1c0,2.6,3.1,5.1,4.7,7.7c1.8-2.8,5.1-5.4,5.2-8.3
			c0.7-17.8,1.1-35.5,0.5-53.3C3087.4,103.8,3083.5,99.2,3081.3,94.6z M3011.6,754c-1.6,16.2-3.1,31.8-4.6,47.3
			c1,0.2,2.1,0.3,3.1,0.5c5.9-6.8,11.6-13.8,17.6-20.5c5-5.5,6.2-11.5,2-17.6C3025.2,757.2,3020.7,749.8,3011.6,754z M3008.9,687.8
			c1.8,0,3.6,0.1,5.4,0.1c1.6-40,0.3-80-0.1-120C3008.5,607.8,3004.6,647.8,3008.9,687.8z M1885.7,923c7.2,13.6,22.4,11.9,32.5,19
			c0.9,0.6,2.9-0.5,4.7-0.8c0-9.5,0-18.6,0-28.7C1909.8,916,1897.9,919.5,1885.7,923z M2967.5,353.8c1.2-42.7,2.3-85.3,3.5-129.9
			C2963.2,230.9,2961.5,330,2967.5,353.8z M3044.1,784.5c-7.7,11.3-19.6,19.8-24.6,34.2c19.9,2.4,24.6,0.4,29.7-13.1
			C3052,798.3,3055.9,790.2,3044.1,784.5z M2437.3,758.2c0.8,0.7,1.7,1.4,2.5,2.1c3.1-3,8.8-5.8,9-8.9c0.9-15.6,0.4-31.2,0.4-46.8
			c-1.1-0.5-2.2-1.1-3.3-1.6c-2.9,4.6-7.8,9.1-8.2,13.9C2436.5,730.5,2437.3,744.5,2437.3,758.2z M3077.6,225.4
			c0,30.2,0,59.5,0,89.9C3087.2,306,3086.7,237.1,3077.6,225.4z M2526.7,753.2c14.5-3.2,5.2-14.9,9.3-20.8
			c0.6,5.4,1.1,10.9,1.7,16.4c0.8-0.1,1.5-0.2,2.3-0.3c0-14.7,0-29.4,0-43.8c-2.3,0.9-4.5,1.2-6.1,2.4c-2.6,1.9-6.8,4.2-6.9,6.5
			C2526.3,726.2,2526.7,739.2,2526.7,753.2z M2005.6,850.2c1.1,0.1,2.2,0.2,3.4,0.3c1.1-56.2,2.3-112.5,3.4-168.7
			c-1,0-1.9,0-2.9-0.1C2008.2,738,2006.9,794,2005.6,850.2z M2054.6,839.5c0.9,0.1,1.7,0.1,2.6,0.2c0-35.9,0-71.7,0-107.6
			c-0.9,0-1.7,0-2.6,0C2054.6,767.8,2054.6,803.7,2054.6,839.5z M2436.8,713.8c-10.9,3.3-13.8,8.7-13.6,16.3
			c0.2,8.7-0.2,17.4,0.2,26.1c0.1,2.5,1.8,4.9,2.7,7.3c2-0.9,4.6-1.3,5.9-2.8c1.7-2,2.8-4.7,3.4-7.3c0.3-1.6-1.6-3.5-1.5-5.2
			C2434.7,737.2,2435.7,726.2,2436.8,713.8z M1977,625.5c4.1-12.6,7.4-22.4,11-33.4c-10.7,0-19.7,0-29.9,0
			C1964.3,603.2,1969.9,613,1977,625.5z M3009.2,898.8c1.3,0.2,2.7,0.4,4,0.6c3.3-10.7,6.7-21.4,9.9-32.1c0.1-0.5-0.4-1.2-0.8-1.7
			c-4.1-5-8.2-9.9-13.2-15.9C3009.2,867.5,3009.2,883.2,3009.2,898.8z M2409.4,769.5c0.8,0.6,1.7,1.3,2.5,1.9c3-2,8.5-3.9,8.7-6.1
			c0.8-13.5,0.4-27,0.4-40.5c-1.2-0.1-2.4-0.2-3.6-0.4C2403.3,737.2,2412.4,754.5,2409.4,769.5z M2015,838.2
			c1.2-50.7,4-99.6,4.3-148.6c-1.4,0-2.8,0-4.3,0C2015,738.5,2015,787.3,2015,838.2z M2565.9,684.2c-1.2-0.3-2.3-0.7-3.5-1
			c-1.4,3.5-3.8,6.9-3.9,10.4c-0.4,16.4-0.3,32.8,0,49.2c0,1.7,2.6,3.3,4,4.9c1.1-1.6,3.2-3.1,3.3-4.7
			C2565.9,723.3,2565.9,703.8,2565.9,684.2z M3077.2,489.8c0.8,0,1.6,0,2.4,0c0.1-32.8,7.8-65.5-2.4-98.3
			C3077.2,424.2,3077.2,457,3077.2,489.8z M2141.1,790.3c-2.1-2.5-4.2-5.1-6.3-7.7c-0.9,3.1-2.4,6.2-2.6,9.4
			c-0.4,7.4-0.3,14.8-0.2,22.2c0,2.4,0.7,4.9,1.1,7.3c0.8,0,1.6-0.1,2.3-0.1c1.2-6.4,2.4-12.7,3.6-19.1c2,2.6,2.2,5.3,2.2,7.9
			c0.1,3,0,5.9,0,10.2c9.1-7.4,9.3-28.7,1.6-34.8C2142.1,787.7,2141.4,789.5,2141.1,790.3z M2064,738.2c-0.8-0.1-1.6-0.2-2.5-0.3
			c0,33.3,0,66.7,0,100c0.8,0,1.6,0,2.5,0.1C2064,804.8,2064,771.5,2064,738.2z M2396.7,774.8c4.7-2.9,10.2-4.6,10.4-6.8
			c0.9-11.2,0.4-22.6,0.4-33.9c-0.9-0.4-1.8-0.7-2.6-1.1c-2.7,3.1-7.4,6.1-7.8,9.5C2396.1,752.2,2396.7,762.2,2396.7,774.8z
			 M2549.5,695.8c-7.6,3.5-10.6,29.4-6.2,53.5C2550.5,747.8,2554,717.5,2549.5,695.8z M1955.9,630.7c3.5-11.7,3.5-23.6,0.1-35.4
			c-0.5-1.8-4.6-2.5-8.8-4.7c0,14.2,0,26.2,0,35.7C1950.7,628.2,1952.9,629.2,1955.9,630.7z M2085.6,784c0.6-0.1,1.3-0.1,1.9-0.2
			c0,15.6,0,31.2,0,46.9c1.2-21.9,1.4-43.8,1-65.6c-0.1-3.6-3-7.2-5.3-12.5c0,27,0,51.4,0,75.9c0.8,0,1.6,0,2.4,0
			C2085.6,813.5,2085.6,798.8,2085.6,784z M2007.5,584.7c-1,0.1-2,0.1-2.9,0.2c-0.5,27.9-4.2,55.8,0.6,83.6c0.8,0,1.6,0,2.4,0
			C2007.5,640.5,2007.5,612.5,2007.5,584.7z M2628.1,737.5c0.8,0,1.6-0.1,2.4-0.1c0-33.5,0-67.1,0-100.6c-0.8,0-1.6,0-2.4,0
			C2628.1,670.3,2628.1,704,2628.1,737.5z M2519.2,715.2c-3.4,3.9-7.6,6.5-7.9,9.6c-0.9,8.3-0.4,16.8,0,25.2c0.1,1.6,2.5,3,3.8,4.5
			c1.4-1.5,3.9-2.9,3.9-4.4C2519.4,739.2,2519.2,728.5,2519.2,715.2z M2083.3,695.7c-1.3,17.8-2.4,35.5-1.3,53.2
			c1.7-0.1,3.5-0.1,5.2-0.2C2086.4,731,2089.4,713.2,2083.3,695.7z M3078.3,678.8c1.4,0,2.8,0,4.2,0c-1.1-27.3-2.1-54.6-3.2-81.9
			c-0.3,0-0.7,0-1,0.1C3078.3,624.2,3078.3,651.5,3078.3,678.8z M2505.5,726.8c-11.1,3.6-13.2,11.3-8.2,32.3c3.3-3,7.6-4.9,7.9-7.3
			C2506,743.7,2505.5,735.2,2505.5,726.8z M2571.8,677.8c-7.1,15.6-3.8,31.8-3.5,50.2C2574.8,718.3,2575.9,701,2571.8,677.8z
			 M1947,925.8c0.8,1,1.5,2,2.3,3c8.2,0,16.4,0,26.7,0c-5.5-6.1-9.4-10.5-14.8-16.4C1956,917.3,1951.5,921.5,1947,925.8z
			 M2129.1,779c-6.5,11.1-5.5,40,0,45C2129.1,808.5,2129.1,793.8,2129.1,779z M2107.2,763.5c0-15.2,0-30,0-44.8
			C2101.2,728.8,2102.3,758.5,2107.2,763.5z M1949.9,936.7c-0.7,1-1.4,2.1-2.1,3.1c4.4,3.3,9,9.5,13.2,9.2c4.8-0.3,9.3-6.3,14-9.8
			c-0.5-0.9-1-1.7-1.6-2.6C1965.6,936.7,1957.7,936.7,1949.9,936.7z M2069.4,738.2c5.7-19.4,4.1-54,0-58
			C2069.4,699,2069.4,718.5,2069.4,738.2z M2491,735.8c-11.4,4.3-13.2,9-9.4,23.3C2493.2,758.7,2493.8,757.2,2491,735.8z
			 M2115,767.3c0-13.7,0-27.4,0-41C2108.9,736.5,2110,763,2115,767.3z M2118.3,824.3c0.8,0,1.6,0,2.4-0.1c0-16.1,0-32.1,0-48.2
			c-0.8,0-1.6,0-2.4,0C2118.3,792.2,2118.3,808.2,2118.3,824.3z M2120.3,772.2c0.9-0.1,1.8-0.3,2.7-0.4c3.8-16.2,2-35.3-2.7-38.1
			C2120.3,746.2,2120.3,759.2,2120.3,772.2z M2106.3,768.5c-1,0.1-1.9,0.1-2.9,0.2c0,19.3,0,38.7,0,58c0.7,0,1.3,0,2,0
			c0-12.4,0-24.8,0-37.2c0.6,0,1.3,0,1.9,0c0,8.7,0,17.3,0,26c0.8-0.1,1.6-0.1,2.4-0.2C2108.5,799.8,2107.4,784.2,2106.3,768.5z
			 M1980,898.5c-13.6,3.6-15.4,11.8,2.4,24.1C1981.5,913.7,1980.8,906.3,1980,898.5z M2128.2,738.8c-3.8,25.7-2.8,34.1,4,37.3
			C2131.4,763.2,2135,750.3,2128.2,738.8z M1948.4,867c0.7,0.1,1.3,0.2,2,0.3c0-18.6,0-37.1,0-55.7c-0.7,0-1.3-0.1-2-0.1
			C1948.4,830,1948.4,848.5,1948.4,867z M1960.6,864.2c0.5,0,1.1-0.1,1.6-0.1c0-18.3,0-36.5,0-54.8c-0.5,0-1.1,0-1.6,0
			C1960.6,827.5,1960.6,845.8,1960.6,864.2z M2099.8,758.3c0.5-15.6,3.3-31.3-1.6-46.6C2097.2,727.5,2093.5,743.2,2099.8,758.3z
			 M1957.8,725c-0.5,0-1-0.1-1.6-0.1c0,17.6,0,35.1,0,52.7c0.5,0,1,0.1,1.6,0.1C1957.8,760,1957.8,742.5,1957.8,725z M2090.2,753.5
			c1.2,0,2.3,0,3.5,0c-0.6-16.6,1.4-33.3-0.8-49.8c-0.9,0.1-1.7,0.1-2.6,0.2C2090.2,720.5,2090.2,737,2090.2,753.5z M2552.3,741
			c1.2,0,2.3,0,3.5,0c0-16.4,0-32.8,0-49.1C2550.3,708.2,2552.6,724.5,2552.3,741z M1955.8,814.8c-0.4,0-0.8-0.1-1.2-0.1
			c0,16.8,0,33.5,0,50.3c0.4,0,0.8,0.1,1.2,0.1C1955.8,848.3,1955.8,831.7,1955.8,814.8z M2138.3,779c4.1-13.1,2.4-30-3.4-33.4
			C2132,762.2,2133.3,775.2,2138.3,779z M1963.6,725.5c-0.4,0.1-0.9,0.2-1.3,0.2c0,17.2,0,34.5,0,51.7c0.4,0,0.9,0.1,1.3,0.1
			C1963.6,760.2,1963.6,742.8,1963.6,725.5z M1952.6,726.8c-0.6,0-1.2,0-1.7-0.1c0,16.7,0,33.4,0,50.2c0.6,0,1.2,0.1,1.7,0.1
			C1952.6,760.2,1952.6,743.5,1952.6,726.8z M2162.3,787.5c5.6-8.4,4.2-20.9-2.8-25.4C2154.8,771.2,2156,782.7,2162.3,787.5z
			 M2144.1,751.2c-3.8,20.9-3,27.2,3.7,31.9C2147.1,771.7,2150.7,760.8,2144.1,751.2z M1989.5,596.2c-3.8,13.4-6.8,23.9-9.7,34.3
			c1.1,0.3,2.1,0.7,3.2,1c0.9-2,1.9-4.1,2.5-5.3c0.5,1.2,1.3,3.2,2.1,5.2c0.7-0.1,1.3-0.2,2-0.3
			C1989.5,620.3,1989.5,609.7,1989.5,596.2z M2150.9,817.3c6.5-3.7,7.5-20.9,0-31.3C2150.8,798.2,2150.8,807.8,2150.9,817.3z
			 M2151.8,756.8c-4.7,10.3-3.1,25.1,3.1,27.7C2158,770.3,2157,761.2,2151.8,756.8z M1967.2,812.8c-0.3,0-0.6,0-1-0.1
			c0,15.4,0,30.8,0,46.2c0.3,0,0.6,0,1,0C1967.2,843.7,1967.2,828.2,1967.2,812.8z M1959.9,655.3c-0.5,0-1,0-1.5,0
			c0,13.6,0,27.2,0,40.8c0.5,0,1,0,1.5,0.1C1959.9,682.5,1959.9,669,1959.9,655.3z M3036.6,836c-0.5-1-1-2.1-1.4-3.1
			c-4.6,0.8-9.1,1.7-13.7,2.5c2.1,4.5,4.2,9,7.3,15.6C3032.3,844.2,3034.5,840.2,3036.6,836z M1972.3,856.7c0.3,0.1,0.7,0.1,1,0.2
			c0-14.8,0-29.6,0-44.4c-0.3,0-0.7-0.1-1-0.1C1972.3,827.2,1972.3,841.8,1972.3,856.7z M1952.4,695.5c0.5,0,1,0,1.6,0
			c0-13.3,0-26.6,0-39.9c-0.5,0-1,0-1.6-0.1C1952.4,668.8,1952.4,682.2,1952.4,695.5z M2178.2,770.5c-0.9,0.3-1.7,0.6-2.6,0.9
			c-0.2,2.7-0.7,5.5-0.4,8.2c0.4,3.9,1.4,7.7,2.3,11.6c0,0.2,3.2,0,3.2-0.2c0.7-4.6,1.7-9.2,1.4-13.7
			C2182.1,775,2179.6,772.8,2178.2,770.5z M1942.8,922.5c5.2-5.4,12.4-8.6,12.5-17.7C1940.6,907.5,1940.5,907.8,1942.8,922.5z
			 M2474.1,761.7c1.7-5.5,3.4-11,5.6-18.5C2463.8,750,2463.3,751.3,2474.1,761.7z M2110.7,818.8c0.6,0.3,1.3,0.5,1.9,0.8
			c0-15.1,0-30.2,0-45.3c-0.6,0-1.3,0-1.9,0C2110.7,789.2,2110.7,804,2110.7,818.8z M1946.8,694.5c0.7,0,1.4,0.1,2,0.1
			c0-11.9,0-23.8,0-35.7c-0.7,0-1.4,0-2,0C1946.8,670.8,1946.8,682.7,1946.8,694.5z M2167.9,766.5c-3,17.5-2.5,20.1,3.7,22.9
			C2174.4,777.5,2173.6,771.7,2167.9,766.5z M3041.5,663c-6.7,7.2-6.3,18.5,0,23.3C3041.5,678,3041.5,670.5,3041.5,663z
			 M1962.4,695.7c1,0,2-0.1,3.1-0.1c0-12.9,0-25.8,0-38.7c-0.3,0-0.6-0.1-0.9-0.1C1963.9,669.7,1963.2,682.7,1962.4,695.7z
			 M3046.6,93.8c1.1,0.2,2.1,0.4,3.2,0.7c3.1-4.7,6.2-9.3,10.6-15.9c-5,0-10.7-0.9-11.1,0.2C3047.6,83.5,3047.4,88.8,3046.6,93.8z
			 M2159.9,791.5c0,8,0,16,0,24c1-0.1,2.1-0.1,3.1-0.2C2161.5,807.2,2167.9,799,2159.9,791.5z M2807.5,693.5
			c-5.9,6.8-4.6,13.9-2.9,20.9c1,0,1.9,0.1,2.9,0.1C2807.5,707.5,2807.5,700.5,2807.5,693.5z M2343.5,769c-9.7,3.3-9.7,3.3-8.4,13.8
			C2346.5,783.8,2344,776.2,2343.5,769z M1974.2,775.7c0.5,0,0.9,0,1.4,0.1c0-13.2,0-26.4,0-39.6c-0.5,0-0.9,0-1.4,0
			C1974.2,749.3,1974.2,762.5,1974.2,775.7z M2176.6,792.8c0,8.3,0,13.9,0,20.2C2183.9,808.5,2184.2,802,2176.6,792.8z
			 M2167.9,793.8c1.1,18.5,1.1,18.5,4.2,19.6C2174.6,801.5,2173.8,796.8,2167.9,793.8z M1961.8,603.8c-0.8,0.1-1.5,0.2-2.3,0.3
			c0,9,0,18,0,27c0.8-0.1,1.5-0.1,2.3-0.2C1961.8,621.8,1961.8,612.8,1961.8,603.8z M1968.5,727c-0.3,0-0.6,0-0.9,0
			c0,16.6,0,33.1,0,49.7c0.3,0,0.6,0,0.9,0C1968.5,760,1968.5,743.5,1968.5,727z M1971.2,659.8c-0.4,0-0.9,0-1.3,0
			c0,11.9,0,23.8,0,35.8c0.4,0,0.9,0,1.3,0C1971.2,683.7,1971.2,671.8,1971.2,659.8z M2185,795.8c7.3-8.8,6.8-15.4,0-20
			C2185,781.8,2185,787.5,2185,795.8z M3131.6,652.3c-0.7-0.1-1.4-0.2-2.2-0.3c0,7.7,0,15.3,0,23c0.7,0,1.4,0,2.2,0
			C3131.6,667.5,3131.6,659.8,3131.6,652.3z M1984.8,694c0.7,0,1.4,0.1,2.1,0.1c-0.5-11.1-1-22.2-1.6-33.3c-1.1,0.1-2.2,0.1-3.3,0.2
			C1983,672,1983.9,683,1984.8,694z M2451.5,760.8c11.9,3.7,12.7-1.2,10-10.9C2457.5,754.2,2454.5,757.5,2451.5,760.8z"/>
		<path d="M240.5,124.8c0-16.7,0-33.3,0-50c0.2,0,0.4,0,0.6,0c0,16.7,0,33.3,0,50C240.9,124.7,240.7,124.8,240.5,124.8z"/>
	</g>
</g>
</svg>
