<?xml version="1.0" encoding="utf-8"?>
<!-- Generator: Adobe Illustrator 24.1.0, SVG Export Plug-In . SVG Version: 6.00 Build 0)  -->
<svg version="1.1" id="Layer_1" xmlns="http://www.w3.org/2000/svg" xmlns:xlink="http://www.w3.org/1999/xlink" x="0px" y="0px"
	 viewBox="0 0 1125 232.8" style="enable-background:new 0 0 1125 232.8;" xml:space="preserve">
<style type="text/css">
	.st0{fill:#5B7ABA;}
</style>
<g>
	<g>
		<path class="st0" d="M104.4,187.9c-36.9-2.5-63.2-32.1-60.8-68.6c2.2-33.2,33.2-60.7,66-58.4c36.9,2.5,63.1,32,60.8,68.7
			C168.4,162.7,137.4,190.1,104.4,187.9z M160.6,124.8c0.1-30-23.8-54.2-53.6-54.3c-29.5-0.1-53.6,24-53.7,53.7
			c-0.1,29.7,23.8,53.9,53.3,54C136.3,178.3,160.5,154.4,160.6,124.8z"/>
		<path class="st0" d="M354.2,117.9c-1.7,8.3-3.5,16.6-5.3,25.5c-2.5,0-5,0.2-7.4-0.1c-0.9-0.1-2.4-1-2.5-1.7
			c-2.6-13.8-5-27.7-7.5-41.9c3.5,0,6.4,0,10,0c1.2,8.8,2.4,17.7,3.6,26.6c0.3,0,0.7,0.1,1,0.1c1.7-8.8,3.3-17.6,5-26.7
			c2.4,0,4.7,0,7.4,0c1.7,9.1,3.4,18.2,5.2,27.2c0.3,0,0.5,0,0.8,0c1.2-9,2.4-18,3.6-27.2c3.2,0,6.3,0,10.1,0
			c-2.6,14.4-5.1,28.7-7.7,43.3c-3.2,0-6.3,0-9.9,0c-1.8-8.3-3.6-16.7-5.3-25.1C354.8,118,354.5,117.9,354.2,117.9z"/>
		<path class="st0" d="M396.7,125.2c2.3,11,11.9,13.1,22.9,5.8c6.7,4.8,6.6,6.7-0.4,10.4c-9.7,5.1-22.8,3-29.3-4.7
			s-6.6-21.8-0.1-30.2c5.7-7.5,16.8-10.1,25.7-6c7.4,3.4,12.7,14.1,10.7,22.3c-0.2,1-2.2,2.2-3.4,2.3c-6.8,0.2-13.6,0.1-20.5,0.1
			C400.4,125.2,398.6,125.2,396.7,125.2z M396.9,117.1c6.3,0,12.2,0,18.1,0c-0.3-6.1-3-9.2-8.1-9.6
			C402,107.1,398.4,110.4,396.9,117.1z"/>
		<path class="st0" d="M547.5,125.2c2.4,10.9,12.1,13.1,23.4,5.4c1.4,1.8,2.9,3.7,4.4,5.7c-5.7,9.4-23,11-32.6,2.5
			c-7.5-6.6-8.5-15.1-6.2-24.3c2.1-8.5,7.6-13.8,16.3-15.6c14.4-2.9,26.9,9.4,23.7,23.8c-0.2,1-2.5,2.3-3.9,2.3
			C564.4,125.3,556.1,125.2,547.5,125.2z M547.6,117.3c5,0,9.6,0,14.3,0c1.1,0,2.3-0.2,3.4-0.3c0.3-5.6-2.1-8.7-7.2-9.4
			C552.9,106.9,549.1,110.3,547.6,117.3z"/>
		<path class="st0" d="M462.2,115.6c0.7-3.6-0.5-6.8-4.4-8c-3.6-1.1-7-1-10.3,2.5c-2.1,2.2-6.8,2.1-10.7,3.2
			c-0.6-6.3,2.2-9.5,6-11.7c7.8-4.4,16-4.3,23.8-0.1c4.8,2.6,6.8,7.1,6.8,12.5c0,9.6,0,19.2,0,29c-2.9-0.8-8.1,2.9-11.3-3
			c-5.4,3.8-11,5.1-17.2,3.3c-5.6-1.7-9.3-6-9.6-11.4c-0.4-6.3,2.4-11.5,8.4-13.2C449.7,117.1,455.9,116.6,462.2,115.6z
			 M461.9,122.7c-4.1,0.6-8.3,0.6-11.8,2c-1.8,0.7-3.6,4.4-3.2,6.3c0.3,1.8,3.4,4,5.5,4.2C460.1,136.1,463.1,132.3,461.9,122.7z"/>
		<path class="st0" d="M272.6,143.1c-2.9-0.9-8,2.8-11.3-2.9c-5.1,3.4-10.6,5.1-16.8,3.2c-6-1.8-9.7-6-10-11.6
			c-0.3-6.5,2.6-11.5,9-13.3c5.7-1.6,11.7-2,17.7-2.9c0.8-3.6-0.3-6.9-4.3-8.1c-3.7-1.1-7-0.9-10.3,2.5c-2.2,2.2-6.8,2.2-10.7,3.3
			c-0.5-5.8,1.8-8.8,5.1-11.1c6.6-4.8,18.3-5,25.1-0.5c4.5,3,6.6,7.2,6.5,12.7C272.5,123.8,272.6,133.3,272.6,143.1z M260.9,122.9
			c-3.8,0.5-7.4,0.6-10.9,1.4c-3.3,0.8-4.9,3.5-4.3,6.8s3.1,4.3,6.3,4.3C259.5,135.5,262.1,132.3,260.9,122.9z"/>
		<path class="st0" d="M527.9,99.4c-5.8,15.2-11.2,29.4-16.6,43.6c-0.5,0.1-0.9,0.3-1.2,0.3c-9.4,0.4-9.4,0.4-12.6-8.2
			c-4.4-11.6-8.9-23.2-13.5-35.3c4.1,0,7.7,0,11.5,0c3.3,10.5,6.7,21.1,10.4,32.6c3-9.5,6.2-18,8.4-26.7c1.3-5,3.3-7.1,8.4-6.3
			C524.1,99.6,525.6,99.4,527.9,99.4z"/>
		<path class="st0" d="M291.5,143c0-1.8,0-3.5,0-5.1c0-12.6,0-25.2,0-38.1c3.6,0,6.9,0,10.3,0c0.3,1.9,0.6,3.7,1,6.1
			c6.3-6.4,13.5-9.2,22.1-6c0.1,0.3,0.4,0.6,0.4,0.9c-1.1,9.1-1.1,9.1-10,9c-8.6-0.1-12.4,3.7-12.4,12.4c0,6.8,0,13.6,0,20.8
			C299.1,143,295.7,143,291.5,143z"/>
		<path class="st0" d="M129.1,145.6c-4.2-1.2-9.4,2.7-12.9-3.4c-5.4,3.6-11.2,5.4-17.8,3.3c-6.1-1.9-9.8-6.1-10.2-12
			c-0.4-6.6,2.6-12.1,9-13.9c6-1.7,12.3-2,19-3c0.6-3.7-0.3-7.3-4.7-8.6c-3.8-1.1-7.2-1.1-10.6,2.8c-2.1,2.4-7.1,2.3-10.9,3.3
			c-1.1-5.5,1-8.4,3.9-10.8c7.4-6.2,21.3-6.4,28.9-0.4c4.3,3.4,5.3,8.3,5.5,13.3c0.1,5.5,0,11,0.1,16.5
			C128.4,136.7,128.8,140.6,129.1,145.6z M115.9,124c-4,0.4-7.8,0.5-11.4,1.4c-3.4,0.8-5.2,3.7-4.6,7.2c0.7,3.7,3.7,4.8,7.1,4.7
			C114.3,137.2,117.1,133.3,115.9,124z"/>
	</g>
</g>
<g>
	<g>
		<path class="st0" d="M680.4,73.2c29.3,0,57.9,0,87,0c0,3.4,0,6.8,0,10.6c-25.3,0-50.6,0-76.1,0c0,24.2,0,47.9,0,72.1
			c25.4,0,50.7,0,76.2,0c0,3.6,0,6.7,0,10.2c-28.9,0-57.9,0-87.1,0C680.4,135.1,680.4,104.4,680.4,73.2z"/>
		<path class="st0" d="M786.7,109.1c-2.7,0-5.1,0.2-7.3-0.1c-1.2-0.2-2.7-1.1-3.2-2.1c-2.9-5-7.1-7.3-12.4-5.5
			c-2.2,0.8-4.9,3.3-5.3,5.4c-0.3,1.6,2.3,4.8,4.3,5.6c4.6,1.9,9.7,2.4,14.3,4.1c9.6,3.4,13.3,11.7,9.9,21.2
			c-0.4,1.2-1.1,2.5-1.8,3.5c-4.6,6.7-16,9.5-26,6.3c-8.7-2.7-13.5-9.5-13.3-19.2c3.2,0,6.4,0,9.6,0c2.7,8.9,8.4,12.7,16,9.9
			c2.3-0.8,4.9-3.8,5.2-6.1c0.2-1.9-2.2-5.1-4.3-6.2c-3.3-1.7-7.3-2-11-3c-10.2-2.7-14.9-8.3-14-17c0.8-8.4,7.5-14.1,17.3-14.8
			C777.7,90.2,786.6,97.3,786.7,109.1z"/>
		<path class="st0" d="M923.2,147.7c-3.1,0-5.9,0.5-8.3-0.2c-1.3-0.4-2.7-2.4-3.2-4c-2.2-8.2-2.1-8.2-10.6-8.2c-0.8,0-1.7,0-2.5,0
			c-7.5,0-7.5,0-9.2,7.3c-1.4,6-2.2,6.3-11.9,4.5c0.7-3.2,1.4-6.4,2.2-9.6c3.2-13.6,6.6-27.1,9.7-40.8c0.7-3.2,1.8-5,5.5-4.6
			c4.9,0.5,11.3-1.4,14.5,1c3.1,2.4,3.2,9,4.4,13.8c2.9,11.9,5.7,23.9,8.6,35.9C922.7,144.2,922.9,145.6,923.2,147.7z M893.5,124.6
			c4.8,0,9,0,13.7,0c-2.1-9.2-4.1-18-6.2-26.8c-0.5,0-0.9,0-1.4,0C897.6,106.7,895.6,115.5,893.5,124.6z"/>
		<path class="st0" d="M1047.5,92.6c0,3.1,0,6,0,9.5c-8.5,0-16.7,0-25.3,0c0,12,0,23.4,0,35.5c8.3,0,16.6,0,25.3,0
			c0,3.6,0,6.5,0,9.8c-12,0-23.7,0-35.8,0c0-18.3,0-36.3,0-54.8C1023.4,92.6,1035.1,92.6,1047.5,92.6z"/>
		<path class="st0" d="M951.5,92.4c3.3,0,6.4,0,10.1,0c0,15,0,29.8,0,45.3c8.7,0,16.8,0,25.1,0c0,3.5,0,6.4,0,9.7
			c-11.7,0-23.3,0-35.2,0C951.5,129.2,951.5,111.1,951.5,92.4z"/>
		<path class="st0" d="M857.1,92.9c-5.1,7.9-9.9,15.6-15,23.1c-2,3-1.9,5.1,0.2,7.9c5.4,7.5,10.5,15.2,16,23.2
			c-7.6,1.3-13.7,1.3-17.2-6.5c-1.7-3.7-4.4-7.1-6.9-10.4c-5-6.9-5-13.7-0.1-20.6c2.1-3,4.4-5.9,5.9-9.3
			C843.3,93,848.6,90.3,857.1,92.9z"/>
		<path class="st0" d="M813.2,92.5c3.3,0,6.4,0,9.7,0c0,18.4,0,36.4,0,54.9c-3.2,0-6.3,0-9.7,0C813.2,129.1,813.2,110.9,813.2,92.5z
			"/>
		<path class="st0" d="M1029.7,115.2c3.2,0,6.2,0,9.4,0c0,3.2,0,6.1,0,9.4c-3.1,0-6,0-9.4,0C1029.7,121.7,1029.7,118.7,1029.7,115.2
			z"/>
	</g>
</g>
</svg>
