<?xml version="1.0" encoding="utf-8"?>
<!-- Generator: Adobe Illustrator 24.1.0, SVG Export Plug-In . SVG Version: 6.00 Build 0)  -->
<svg version="1.1" id="Layer_1" xmlns="http://www.w3.org/2000/svg" xmlns:xlink="http://www.w3.org/1999/xlink" x="0px" y="0px"
	 viewBox="0 0 1125 2436" style="enable-background:new 0 0 1125 2436;" xml:space="preserve">
<g>
	<g>
		<path d="M-441.3,1070.5c29.3,0,57.9,0,87,0c0,3.4,0,6.8,0,10.6c-25.3,0-50.6,0-76.1,0c0,24.2,0,47.9,0,72.1c25.4,0,50.7,0,76.2,0
			c0,3.6,0,6.7,0,10.2c-28.9,0-57.9,0-87.1,0C-441.3,1132.4-441.3,1101.7-441.3,1070.5z"/>
		<path d="M-335,1106.4c-2.7,0-5.1,0.2-7.3-0.1c-1.2-0.2-2.7-1.1-3.2-2.1c-2.9-5-7.1-7.3-12.4-5.5c-2.2,0.8-4.9,3.3-5.3,5.4
			c-0.3,1.6,2.3,4.8,4.3,5.6c4.6,1.9,9.7,2.4,14.3,4.1c9.6,3.4,13.3,11.7,9.9,21.2c-0.4,1.2-1.1,2.5-1.8,3.5c-4.6,6.7-16,9.5-26,6.3
			c-8.7-2.7-13.5-9.5-13.3-19.2c3.2,0,6.4,0,9.6,0c2.7,8.9,8.4,12.7,16,9.9c2.3-0.8,4.9-3.8,5.2-6.1c0.2-1.9-2.2-5.1-4.3-6.2
			c-3.3-1.7-7.3-2-11-3c-10.2-2.7-14.9-8.3-14-17c0.8-8.4,7.5-14.1,17.3-14.8C-344,1087.5-335.1,1094.6-335,1106.4z"/>
		<path d="M-198.5,1145c-3.1,0-5.9,0.5-8.3-0.2c-1.3-0.4-2.7-2.4-3.2-4c-2.2-8.2-2.1-8.2-10.6-8.2c-0.8,0-1.7,0-2.5,0
			c-7.5,0-7.5,0-9.2,7.3c-1.4,6-2.2,6.3-11.9,4.5c0.7-3.2,1.4-6.4,2.2-9.6c3.2-13.6,6.6-27.1,9.7-40.8c0.7-3.2,1.8-5,5.5-4.6
			c4.9,0.5,11.3-1.4,14.5,1c3.1,2.4,3.2,9,4.4,13.8c2.9,11.9,5.7,23.9,8.6,35.9C-199,1141.5-198.8,1142.9-198.5,1145z
			 M-228.2,1121.9c4.8,0,9,0,13.7,0c-2.1-9.2-4.1-18-6.2-26.8c-0.5,0-0.9,0-1.4,0C-224.1,1104-226.1,1112.8-228.2,1121.9z"/>
		<path d="M-74.2,1089.9c0,3.1,0,6,0,9.5c-8.5,0-16.7,0-25.3,0c0,12,0,23.4,0,35.5c8.3,0,16.6,0,25.3,0c0,3.6,0,6.5,0,9.8
			c-12,0-23.7,0-35.8,0c0-18.3,0-36.3,0-54.8C-98.3,1089.9-86.6,1089.9-74.2,1089.9z"/>
		<path d="M-170.2,1089.7c3.3,0,6.4,0,10.1,0c0,15,0,29.8,0,45.3c8.7,0,16.8,0,25.1,0c0,3.5,0,6.4,0,9.7c-11.7,0-23.3,0-35.2,0
			C-170.2,1126.5-170.2,1108.4-170.2,1089.7z"/>
		<path d="M-264.6,1090.2c-5.1,7.9-9.9,15.6-15,23.1c-2,3-1.9,5.1,0.2,7.9c5.4,7.5,10.5,15.2,16,23.2c-7.6,1.3-13.7,1.3-17.2-6.5
			c-1.7-3.7-4.4-7.1-6.9-10.4c-5-6.9-5-13.7-0.1-20.6c2.1-3,4.4-5.9,5.9-9.3C-278.4,1090.3-273.1,1087.6-264.6,1090.2z"/>
		<path d="M-308.5,1089.8c3.3,0,6.4,0,9.7,0c0,18.4,0,36.4,0,54.9c-3.2,0-6.3,0-9.7,0C-308.5,1126.4-308.5,1108.2-308.5,1089.8z"/>
		<path d="M-92,1112.5c3.2,0,6.2,0,9.4,0c0,3.2,0,6.1,0,9.4c-3.1,0-6,0-9.4,0C-92,1119-92,1116-92,1112.5z"/>
	</g>
</g>
</svg>
